# xmcd CD database file
#
# Track frame offsets:
#	150
#	16573
#	38225
#	55012
#	72157
#	83298
#	98886
#	117605
#	129674
#	155068
#	169235
#	187019
#	203969
#	217253
#	235798
#	252727
#	269223
#	291398
#	305782
#	321643
#
# Disc length: 4478 seconds
#
# Revision: 1
# Processed by: cddbd v1.4PL0 Copyright (c) Steve Scherf et al.
# Submitted via: CDex 1.40Release
#
DISCID=3e117c14
DTITLE=Emmylou Harris - Portraits
DYEAR=1996
DGENRE=Country
TTITLE0=Boulder to birmingham
TTITLE1=Before believing
TTITLE2=Love hurts
TTITLE3=In my hour of darkness
TTITLE4=The angels rejoiced last night
TTITLE5=Sleepless nights
TTITLE6=Too far gone
TTITLE7=If i could only win your love
TTITLE8=Till i gain control again
TTITLE9=One of these days
TTITLE10=Together again
TTITLE11=Here, there and everywhere
TTITLE12=You're still on my mind
TTITLE13=Sweet dreams
TTITLE14=Luxury liner
TTITLE15=Making believe
TTITLE16=Pancho and Lefty
TTITLE17=Two more bottles of wine
TTITLE18=You never can tell
TTITLE19=Easy from now on
EXTD=YEAR: 1996 ID3G: 2
EXTT0=
EXTT1=
EXTT2=
EXTT3=
EXTT4=
EXTT5=
EXTT6=
EXTT7=
EXTT8=
EXTT9=
EXTT10=
EXTT11=
EXTT12=
EXTT13=
EXTT14=
EXTT15=
EXTT16=
EXTT17=
EXTT18=
EXTT19=
PLAYORDER=
